# xmcd CD database file
#
# Track frame offsets:
#	150
#	76875
#	106316
#	130456
#	141308
#	160721
#	184448
#	195268
#	215501
#
# Disc length: 3383 seconds
#
# Revision: 0
# Processed by: cddbd v1.5.1PL0 Copyright (c) Steve Scherf et al.
# Submitted via: Feurio! 1.68 - http://www.feurio.com
#
DISCID=7c0d3509
DTITLE=Ellen McIlwaine - Bremen 2001 2 edit
DYEAR=1900
DGENRE=
TTITLE0=70ies Medley
TTITLE1=Crawling Kingsnake
TTITLE2=Bid You Goodnight/Iko Iko
TTITLE3=Down On The Ocean
TTITLE4=Take Me To The River
TTITLE5=Dead End Street
TTITLE6=Crawling Kingsnake
TTITLE7=Egyptian Blues
TTITLE8=May This Be Love
EXTD=
EXTT0=
EXTT1=
EXTT2=
EXTT3=
EXTT4=
EXTT5=
EXTT6=
EXTT7=
EXTT8=
PLAYORDER=
